<svg xmlns="http://www.w3.org/2000/svg" viewBox="0 0 800 900"><path fill="currentColor" d="M0 145C0 65 60 0 150 0s150 60 150 140v50c0 80-63 101-134 142-66 39-94 65-94 112 0 70 61 94 157 121 92 26 142 88 218 191l-116-58c-20-10-32-5-32 21v18c0 94-57 163-151 163S0 839 0 749Z"/><path fill="currentColor" d="M183 385c54-36 92-52 139-99L544 63C588 18 618 0 661 0c76 0 139 61 139 139 0 41-19 76-53 111L581 426c-79 79-192 78-319 83-71 3-115-17-130-49-14-31 5-52 51-75Z"/><path fill="currentColor" d="M402 540c54-57 132-58 186-4l171 165c54 54 54 140 0 194-53 53-139 53-193-1L395 723c-54-54-45-128 7-183Z"/></svg>